<?xml version="1.0" encoding="UTF-8"?>
<svg width="128px" height="128px" version="1.1" viewBox="0 0 16 16" xmlns="http://www.w3.org/2000/svg" fill="context-fill" fill-opacity="context-fill-opacity">
<path d="m3 0h10a3 3 0 0 1 3 3v7a3 3 0 0 1-3 3h-2v3l-3-3h-5a3 3 0 0 1-3-3v-7a3 3 0 0 1 3-3m0 2a1 1 1 0 0-1 1v7a1 1 1 0 0 1 1h10a1 1 1 0 0 1-1v-7a1 1 1 0 0-1-1h-11z"/>
<path d="m4.5 4h7a0.5 0.5 0 0 1 0 1h-7a0.5 0.5 0 0 1 0-1"/>
<path d="m4.5 6h7a0.5 0.5 0 0 1 0 1h-7a0.5 0.5 0 0 1 0-1"/>
<path d="m4.5 8h7a0.5 0.5 0 0 1 0 1h-7a0.5 0.5 0 0 1 0-1"/>
</svg>
